<svg id="logo_with_text_svg__Layer_2" data-name="Layer 2" xmlns="http://www.w3.org/2000/svg" viewBox="0 0 608.57 121.88" class="MuiSvgIcon-root MuiSvgIcon-fontSizeMedium mui-1h4xpmn" focusable="false" aria-hidden="true"><defs><style>.logo_with_text_svg__cls-1{fill:#000}.logo_with_text_svg__cls-2{fill:#cff200}</style></defs><g id="logo_with_text_svg__Layer_1-2" data-name="Layer 1"><path class="logo_with_text_svg__cls-1" d="m200.31 36.05-6.85 6.54c-3.25-4.78-6.98-7.16-11.19-7.16-3.04 0-5.57.94-7.56 2.82-2 1.88-3 4.24-3 7.07 0 2.27.69 4.22 2.06 5.86.69.78 1.69 1.66 3.02 2.64 1.33.99 2.99 2.07 4.99 3.27 5.94 3.46 9.91 6.6 11.91 9.4 2.03 2.84 3.04 6.55 3.04 11.15 0 5.97-1.97 10.8-5.91 14.5-3.88 3.7-9 5.55-15.35 5.55-5.13 0-9.48-1.1-13.03-3.31-1.79-1.1-3.46-2.54-5.01-4.32-1.55-1.78-3.04-3.93-4.48-6.47l7.79-5.28c2.12 3.73 4.19 6.3 6.22 7.7 2.03 1.4 4.67 2.1 7.92 2.1 3.61 0 6.44-.95 8.48-2.86s3.07-4.63 3.07-8.15c0-2.42-.75-4.46-2.24-6.13-.75-.87-1.86-1.84-3.34-2.91-1.48-1.07-3.35-2.28-5.62-3.63-5.19-3.07-8.82-6-10.88-8.77-1.97-2.78-2.96-6.25-2.96-10.43 0-5.58 1.94-10.21 5.82-13.88 3.88-3.7 8.77-5.55 14.68-5.55 3.85 0 7.13.78 9.85 2.33 2.78 1.55 5.62 4.19 8.55 7.92ZM220.86 80.1l-8.42 16.25h-11.15l38.23-74.04 23.86 74.04h-10.7l-5.01-16.25h-26.81Zm4.43-8.86h19.52l-7.43-24.58-12.09 24.58ZM341.77 20.7l5.68 75.65h-9.76L334.6 52.3l-26.77 48.88-14.82-48.88-13.79 44.05h-10.47l23.9-74 17.5 56.49 31.6-58.15ZM374.67 80.1l-8.42 16.25H355.1l38.23-74.04 23.86 74.04h-10.7l-5.01-16.25h-26.81Zm4.43-8.86h19.52l-7.43-24.58-12.09 24.58ZM492.54 27.23l-9.04 73.86-41.94-53.54-6 48.79h-10.25l9-72.88 41.94 53.45 6.09-49.69h10.21ZM545.49 36.05l-6.85 6.54c-3.25-4.78-6.98-7.16-11.19-7.16-3.04 0-5.57.94-7.56 2.82-2 1.88-3 4.24-3 7.07 0 2.27.69 4.22 2.06 5.86.69.78 1.69 1.66 3.02 2.64 1.33.99 2.99 2.07 4.99 3.27 5.94 3.46 9.91 6.6 11.91 9.4 2.03 2.84 3.04 6.55 3.04 11.15 0 5.97-1.97 10.8-5.91 14.5-3.88 3.7-9 5.55-15.35 5.55-5.13 0-9.48-1.1-13.03-3.31-1.79-1.1-3.46-2.54-5.01-4.32-1.55-1.78-3.04-3.93-4.48-6.47l7.79-5.28c2.12 3.73 4.19 6.3 6.22 7.7 2.03 1.4 4.67 2.1 7.92 2.1 3.61 0 6.44-.95 8.48-2.86s3.07-4.63 3.07-8.15c0-2.42-.75-4.46-2.24-6.13-.75-.87-1.86-1.84-3.34-2.91-1.48-1.07-3.35-2.28-5.62-3.63-5.19-3.07-8.82-6-10.88-8.77-1.97-2.78-2.96-6.25-2.96-10.43 0-5.58 1.94-10.21 5.82-13.88 3.88-3.7 8.77-5.55 14.68-5.55 3.85 0 7.13.78 9.85 2.33 2.78 1.55 5.62 4.19 8.55 7.92ZM566.04 80.1l-8.42 16.25h-11.15l38.23-74.04 23.86 74.04h-10.7l-5.01-16.25h-26.81Zm4.43-8.86h19.52l-7.43-24.58-12.09 24.58Z"></path><path class="logo_with_text_svg__cls-2" d="M75.77 121.88V46.11L0 121.88h75.77M36.11 0v75.77L111.88 0H36.11M110.55 101.17c-2.33-4.87-7.3-8.24-13.06-8.24-7.99 0-14.47 6.48-14.47 14.47s6.48 14.47 14.47 14.47h23.42l-10.35-20.71Z"></path></g></svg>
